<?xml version="1.0" encoding="UTF-8"?>
<svg width="40px" height="35px" viewBox="0 0 40 35" version="1.1" xmlns="http://www.w3.org/2000/svg" xmlns:xlink="http://www.w3.org/1999/xlink">
    <!-- Generator: Sketch 55.2 (78181) - https://sketchapp.com -->
    <title>Group 11</title>
    <desc>Created with Sketch.</desc>
    <g id="Page-1" stroke="none" stroke-width="1" fill="none" fill-rule="evenodd">
        <g id="Homepage" transform="translate(-846.000000, -1617.000000)" fill="#FFFFFF">
            <g id="Group-11" transform="translate(846.000000, 1617.000000)">
                <path d="M1.01112132,14.8389706 C1.30046168,14.8389706 1.53501838,14.6085289 1.53501838,14.3242647 L1.53501838,10.0007353 C1.53501838,8.57941425 2.7078019,7.42720588 4.15450368,7.42720588 L30.7790545,7.42720588 C31.0683948,7.42720588 31.3029515,7.19676421 31.3029515,6.9125 C31.3029515,6.62823579 31.0683948,6.39779412 30.7790545,6.39779412 L25.8386029,6.39779412 L25.8386029,0.514705882 C25.8386029,0.230441673 25.6040462,1.04805054e-13 25.3147059,1.04805054e-13 L14.5171875,1.04805054e-13 C14.2278471,1.04805054e-13 13.9932904,0.230441673 13.9932904,0.514705882 L13.9932904,6.38235294 L4.15450368,6.38235294 C2.12912118,6.38235294 0.486988162,7.99544465 0.486988162,9.98529412 L0.486988162,14.3088235 C0.482972871,14.4479873 0.536286429,14.5829071 0.635000749,14.682799 C0.733715069,14.782691 0.869408688,14.8389706 1.01112132,14.8389706 Z M22.6952206,6.38235294 L17.1366728,6.38235294 L17.1366728,3.08823529 L22.6952206,3.08823529 L22.6952206,6.38235294 Z M15.0410846,1.02941176 L24.7908088,1.02941176 L24.7908088,6.38235294 L23.7430147,6.38235294 L23.7430147,2.57352941 C23.7430147,2.2892652 23.508458,2.05882353 23.2191176,2.05882353 L16.6127757,2.05882353 C16.3234354,2.05882353 16.0888787,2.2892652 16.0888787,2.57352941 L16.0888787,6.38235294 L15.0410846,6.38235294 L15.0410846,1.02941176 Z" id="Shape" fill-rule="nonzero"></path>
                <path d="M35.6616728,31.9117647 L10.6089154,31.9117647 C10.3195751,31.9117647 10.0850184,32.1422064 10.0850184,32.4264706 C10.0850184,32.7107348 10.3195751,32.9411765 10.6089154,32.9411765 L35.6616728,32.9411765 C36.5296939,32.9411765 37.233364,32.2498515 37.233364,31.3970588 L37.233364,10.0007353 C37.233364,9.14794267 36.5296939,8.45661765 35.6616728,8.45661765 L4.15450368,8.45661765 C3.28648261,8.45661765 2.5828125,9.14794267 2.5828125,10.0007353 L2.5828125,20.6911765 C2.5828125,20.9754407 2.8173692,21.2058824 3.10670956,21.2058824 L16.5446691,21.2058824 L16.5446691,25.9926471 C16.5446691,26.2769113 16.7792258,26.5073529 17.0685662,26.5073529 L22.7738051,26.5073529 C23.0631455,26.5073529 23.2977022,26.2769113 23.2977022,25.9926471 L23.2977022,21.2058824 L36.8216793,21.2058824 C37.1110197,21.2058824 37.3455764,20.9754407 37.3455764,20.6911765 C37.3455764,20.4069123 37.1110197,20.1764706 36.8216793,20.1764706 L23.2977022,20.1764706 L23.2977022,17.5 C23.2977022,17.2157358 23.0631455,16.9852941 22.7738051,16.9852941 L17.0685662,16.9852941 C16.7792258,16.9852941 16.5446691,17.2157358 16.5446691,17.5 L16.5446691,20.1764706 L3.63060662,20.1764706 L3.63060662,10.0007353 C3.63060662,9.71647108 3.86516332,9.48602941 4.15450368,9.48602941 L35.6616728,9.48602941 C35.9510132,9.48602941 36.1855699,9.71647108 36.1855699,10.0007353 L36.1855699,31.3970588 C36.1855699,31.681323 35.9510132,31.9117647 35.6616728,31.9117647 Z M22.2499081,18.0147059 L22.2499081,25.4779412 L17.5924632,25.4779412 L17.5924632,20.6911765 L17.5924632,20.6911765 L17.5924632,18.0147059 L22.2499081,18.0147059 Z" id="Shape" fill-rule="nonzero"></path>
                <path d="M3.10670956,20.7628144 C2.8173692,20.7628144 2.5828125,20.9932561 2.5828125,21.2775203 L2.5828125,31.3970588 C2.5828125,32.2498515 3.28648261,32.9411765 4.15450368,32.9411765 L10.4131681,32.9411765 C10.7025084,32.9411765 10.9370651,32.7107348 10.9370651,32.4264706 C10.9370651,32.1422064 10.7025084,31.9117647 10.4131681,31.9117647 L4.15450368,31.9117647 C3.86516332,31.9117647 3.63060662,31.681323 3.63060662,31.3970588 L3.63060662,21.2775203 C3.63060662,20.9932561 3.39604991,20.7628144 3.10670956,20.7628144 Z" id="Path"></path>
                <path d="M35.6616728,6.39779412 L31.4338235,6.39779412 C31.1444832,6.39779412 30.9099265,6.62823579 30.9099265,6.9125 C30.9099265,7.19676421 31.1444832,7.42720588 31.4338235,7.42720588 L35.6616728,7.42720588 C37.1083746,7.42720588 38.2811581,8.57941425 38.2811581,10.0007353 L38.2811581,31.3970588 C38.2811581,32.0796013 38.0051774,32.7341885 37.5139286,33.2168189 C37.0226798,33.6994493 36.3564035,33.9705882 35.6616728,33.9705882 L4.15450368,33.9705882 C2.7078019,33.9705882 1.53501838,32.8183799 1.53501838,31.3970588 L1.53501838,15.0180787 C1.53501838,14.7338145 1.30046168,14.5033728 1.01112132,14.5033728 C0.721780967,14.5033728 0.487224265,14.7338145 0.487224265,15.0180787 L0.487224265,31.3970588 C0.487224265,33.3869083 2.12912118,35 4.15450368,35 L35.6616728,35 C37.6870553,35 39.3289522,33.3869083 39.3289522,31.3970588 L39.3289522,10.0007353 C39.3289522,8.01088583 37.6870553,6.39779412 35.6616728,6.39779412 Z" id="Path"></path>
                <path d="M19.9080882,24.3867647 C20.7761093,24.3867647 21.4797794,23.6954397 21.4797794,22.8426471 C21.4797794,21.9898544 20.7761093,21.2985294 19.9080882,21.2985294 C19.0400672,21.2985294 18.3363971,21.9898544 18.3363971,22.8426471 C18.3363971,23.6954397 19.0400672,24.3867647 19.9080882,24.3867647 L19.9080882,24.3867647 Z M19.9080882,22.3279412 C20.1974286,22.3279412 20.4319853,22.5583828 20.4319853,22.8426471 C20.4319853,23.1269113 20.1974286,23.3573529 19.9080882,23.3573529 C19.6187479,23.3573529 19.3841912,23.1269113 19.3841912,22.8426471 C19.3841912,22.5583828 19.6187479,22.3279412 19.9080882,22.3279412 Z" id="Shape" fill-rule="nonzero"></path>
            </g>
        </g>
    </g>
</svg>