<?xml version="1.0" encoding="UTF-8"?>
<svg width="53px" height="35px" viewBox="0 0 53 35" version="1.1" xmlns="http://www.w3.org/2000/svg" xmlns:xlink="http://www.w3.org/1999/xlink">
    <!-- Generator: Sketch 55.2 (78181) - https://sketchapp.com -->
    <title>Group 10</title>
    <desc>Created with Sketch.</desc>
    <g id="Page-1" stroke="none" stroke-width="1" fill="none" fill-rule="evenodd">
        <g id="Homepage" transform="translate(-210.000000, -1618.000000)" fill="#FFFFFF">
            <g id="Group-10" transform="translate(210.000000, 1618.000000)">
                <path d="M51.8909513,29.5595855 L47.6885151,29.5595855 C48.1148492,29.015544 48.3584687,28.3506045 48.3584687,27.6252159 L48.3584687,3.1433506 C48.3584687,1.39032815 46.9576566,0 45.1914153,0 L7.30858469,0 C5.54234339,0 4.14153132,1.39032815 4.14153132,3.1433506 L4.14153132,27.6856649 C4.14153132,28.4110535 4.38515081,29.0759931 4.81148492,29.6200345 L0.609048724,29.6200345 C0.24361949,29.6200345 0,29.8618307 0,30.224525 L0,32.582038 C0,33.6096718 0.852668213,34.4559585 1.88805104,34.4559585 L4.50696056,34.4559585 C4.56786543,34.7582038 4.81148492,35 5.11600928,35 L6.15139211,35 C6.45591647,35 6.69953596,34.7582038 6.76044084,34.4559585 L45.9222738,34.4559585 C45.9831787,34.7582038 46.2267981,35 46.5313225,35 L47.5667053,35 C47.8712297,35 48.1148492,34.7582038 48.1757541,34.4559585 L50.611949,34.4559585 C51.6473318,34.4559585 52.5,33.6096718 52.5,32.582038 L52.5,30.164076 C52.5,29.8013817 52.1954756,29.5595855 51.8909513,29.5595855 Z M5.35962877,3.1433506 C5.35962877,2.0552677 6.21229698,1.208981 7.30858469,1.208981 L45.1914153,1.208981 C46.287703,1.208981 47.1403712,2.0552677 47.1403712,3.1433506 L47.1403712,27.6856649 C47.1403712,28.7132988 46.3486079,29.5595855 45.3132251,29.6200345 L7.18677494,29.6200345 C6.15139211,29.5595855 5.35962877,28.7132988 5.35962877,27.6856649 L5.35962877,3.1433506 Z M51.2819026,32.5215889 C51.2819026,32.8842832 50.9773782,33.1865285 50.611949,33.1865285 L1.88805104,33.1865285 C1.52262181,33.1865285 1.21809745,32.8842832 1.21809745,32.5215889 L1.21809745,30.7685665 L7.18677494,30.7685665 C7.24767981,30.7685665 7.24767981,30.7685665 7.30858469,30.7685665 L45.1914153,30.7685665 C45.2523202,30.7685665 45.2523202,30.7685665 45.3132251,30.7685665 L51.2819026,30.7685665 L51.2819026,32.5215889 L51.2819026,32.5215889 Z" id="Shape" fill-rule="nonzero"></path>
                <path d="M29.7642276,31.5 L23.902439,31.5 C23.5609756,31.5 23.3333333,31.7333333 23.3333333,32.0833333 C23.3333333,32.4333333 23.5609756,32.6666667 23.902439,32.6666667 L29.7642276,32.6666667 C30.1056911,32.6666667 30.3333333,32.4333333 30.3333333,32.0833333 C30.3333333,31.7333333 30.0487805,31.5 29.7642276,31.5 Z" id="Path"></path>
                <path d="M6.44358974,26.8333333 L44.8897436,26.8333333 C45.2558974,26.8333333 45.5,26.5844444 45.5,26.2111111 L45.5,4.12222222 C45.5,3.74888889 45.2558974,3.5 44.8897436,3.5 L6.44358974,3.5 C6.0774359,3.5 5.83333333,3.74888889 5.83333333,4.12222222 L5.83333333,26.2733333 C5.83333333,26.5844444 6.0774359,26.8333333 6.44358974,26.8333333 Z M7.05384615,4.74444444 L35.2476923,4.74444444 L36.5902564,4.74444444 L39.1533333,4.74444444 L40.3738462,4.74444444 L44.2794872,4.74444444 L44.2794872,25.6511111 L7.05384615,25.6511111 L7.05384615,4.74444444 Z" id="Shape" fill-rule="nonzero"></path>
            </g>
        </g>
    </g>
</svg>