<?xml version="1.0" encoding="UTF-8"?>
<svg width="35px" height="35px" viewBox="0 0 35 35" version="1.1" xmlns="http://www.w3.org/2000/svg" xmlns:xlink="http://www.w3.org/1999/xlink">
    <!-- Generator: Sketch 55.2 (78181) - https://sketchapp.com -->
    <title>Group 12</title>
    <desc>Created with Sketch.</desc>
    <g id="Page-1" stroke="none" stroke-width="1" fill="none" fill-rule="evenodd">
        <g id="Homepage" transform="translate(-1178.000000, -1619.000000)">
            <g id="Group-12" transform="translate(1178.000000, 1619.000000)">
                <path d="M28.6425735,15.4450735 C28.1330988,15.3603672 27.6536619,15.1464003 27.2497908,14.8234914 C28.0447366,14.416534 28.7960195,13.9289051 29.4918645,13.3682476 C29.4918645,13.3682476 33.0265839,0.441647081 22.5016682,0.00342169748 C22.5016682,0.00342169748 22.4435834,0 22.3378595,0 C21.396853,0 16.6739236,0.272029039 15.3658537,5.63769782 C15.6059701,5.73117423 15.970808,5.8631536 16.3837305,5.99402876 C16.5983245,4.98322165 17.0399462,4.03486134 17.6749768,3.22114238 C18.8914181,1.71413684 20.5930652,1.26772119 21.5940615,1.13706143 C21.8056559,1.3407274 22.3157289,2.02111627 22.0319462,3.67906911 L22.0779684,3.68700581 C21.4745057,4.95583771 20.5648291,6.0534104 19.431475,6.88013935 C19.4509182,6.87916328 19.470182,6.87706391 19.489674,6.87706391 C19.8966507,6.86275445 20.2727971,7.09372252 20.4452812,7.46384277 C21.3269091,6.75071917 22.074805,5.88565218 22.6538871,4.90921979 C23.7985777,6.61962957 25.5068797,7.85822952 26.8737654,8.64970223 C27.2734469,8.88178527 27.4790596,9.34541958 27.3833139,9.79867825 C26.0955295,16.0120119 22.9256968,16.175869 22.7376162,16.1798687 L22.7247954,16.1795388 L22.6986946,16.1801168 C22.6666943,16.1808284 22.6352374,16.1811746 22.6036502,16.1811746 C21.5257384,16.1783986 20.5059419,15.6905178 19.8252343,14.8519529 C19.7047803,15.2389837 19.5681847,15.6177379 19.4154477,15.9882154 C20.2689818,16.818647 21.4147822,17.2773844 22.6036529,17.2646586 C22.6431832,17.2646586 22.6825667,17.2642278 22.7226079,17.2633362 L22.7332357,17.2634344 C22.8825578,17.2634344 24.579425,17.2170847 26.1677802,15.3022046 C26.1731037,15.3001871 26.1785086,15.2976569 26.1838456,15.2956257 C26.5497361,15.6853936 26.9901514,15.9971956 27.4787985,16.2124171 L22.659186,21.8324066 C22.9747685,22.0131945 23.2792171,22.2128803 23.5708798,22.4303802 L28.6192798,16.5438991 C29.4682583,16.7219555 33.6524379,17.766214 33.9174704,21.0782017 C33.8867065,21.5321424 33.7177075,23.9856903 33.505537,26.3057375 C33.4440871,26.7431488 33.0780618,27.0728836 32.638023,27.0872396 L26.1807505,27.0872396 C26.1930441,27.2233032 26.2257346,27.611989 26.2547023,28.1707317 L32.6380203,28.1707317 C33.6357934,28.1551005 34.4672144,27.3993473 34.5809198,26.404656 C34.818645,23.80545 35,21.0760587 35,21.0760587 C34.7042036,16.422662 28.6425735,15.4450735 28.6425735,15.4450735 Z M28.4405879,10.0192755 C28.6296918,9.10828042 28.2158216,8.17820431 27.4135669,7.71128738 C26.1047389,6.95344274 24.1437468,5.56041108 23.1330059,3.59147638 C23.2820911,2.7550128 23.1862946,1.8931226 22.8572152,1.11015952 C25.0149537,1.27557065 26.5628439,2.03642257 27.5798294,3.43061297 C29.7533697,6.41032529 28.8314939,11.4067506 28.5314148,12.7441327 C28.1277939,13.0484021 27.7055037,13.326907 27.2670437,13.577999 C27.8076889,12.4467455 28.2020623,11.2508218 28.4405851,10.0192755 L28.4405879,10.0192755 Z" id="Shape" fill="#FFFFFF" fill-rule="nonzero"></path>
                <path d="M17.9268293,18.99009 L19.909706,21.3152876 C20.6963088,21.5362797 21.461341,21.8308001 22.195122,22.195122 L18.5555215,17.9268293 C18.3591749,18.2960456 18.1485721,18.6501702 17.9268293,18.99009 Z" id="Path" fill="#FFFFFF"></path>
                <path d="M2.07801904,35 L22.7412235,35 C23.7059269,35 24.5719836,34.0898717 24.6599933,33.1225606 C24.7953083,31.3945901 24.7877179,29.6581926 24.6373015,27.9315023 C24.3450739,23.3194564 18.3584274,22.3505439 18.3584274,22.3505439 C16.8305482,22.0742331 16.2061058,20.7457086 15.9587398,19.8848539 C17.1189344,18.5144041 17.9576088,16.8958235 18.4118762,15.150479 C18.5869842,14.5081577 18.6766318,13.8450497 18.6784448,13.1787163 C18.6779282,12.8773441 18.6562154,12.5763917 18.6134712,12.278142 C19.1188421,11.1360797 19.2320428,9.85561902 18.9350301,8.64085331 C18.8664365,8.4376209 18.6699372,8.30780447 18.4585645,8.32607841 C18.4356047,8.32607646 18.4126601,8.32727276 18.389822,8.32966254 C18.3042621,8.33827583 18.2183223,8.34244282 18.1323409,8.3421471 C16.7656311,8.3421471 14.5058093,7.42301213 14.5058093,7.42301213 C13.6604357,7.06939556 12.760407,6.86844361 11.8465342,6.82926829 L11.6025928,6.83437215 C10.0355538,6.91986468 8.58346305,7.69366081 7.62675576,8.9530327 C6.24905115,9.41987468 6.01620145,11.2163987 6.09806135,12.7893254 C6.09025979,12.9183734 6.08334599,13.0476856 6.08334599,13.1787135 C6.13311069,15.6919598 7.02844589,18.1127884 8.62136874,20.0410798 C8.6663434,20.0930525 8.71627608,20.138467 8.76294825,20.1882772 C8.46245363,21.0290514 7.81804197,22.1050823 6.46082588,22.3505384 C6.46082588,22.3505384 0.47393733,23.319451 0.18191413,27.9314969 C-0.0393369701,29.6548262 -0.0588413611,31.3985745 0.123805949,33.1265342 C0.225398419,34.0925434 1.1133237,35 2.07801904,35 Z M7.20512173,13.2545551 C7.06806175,11.7934828 7.18185962,10.2451303 7.96608333,9.97938947 C8.18495984,9.90702574 8.37413327,9.76356482 8.50426193,9.57125816 C9.29816306,8.53970719 10.5109351,7.92781227 11.8024796,7.90716745 C12.5876748,7.93021712 13.3614974,8.10326211 14.0832257,8.4171961 C14.0911868,8.42066403 14.0992018,8.42403846 14.1072706,8.42731937 C14.3505771,8.52627532 16.468362,9.37078072 17.9909093,9.42202625 C18.1070558,10.3899311 18.0766162,12.4814927 15.8886522,13.4108763 C15.3922223,13.5163626 14.8862222,13.5687762 14.3789775,13.5672869 C13.3021495,13.5672869 11.770321,13.3263195 10.5878814,12.1784344 C10.2959186,11.8950065 9.87095007,11.8026711 9.48982112,11.9398524 C9.10869218,12.0770336 8.83667717,12.4202371 8.78697168,12.8266429 L8.77235585,12.9462049 L8.7707256,12.9450502 C8.37956525,12.6662129 7.85304172,12.6844042 7.48156871,12.9895904 C7.38334054,13.0711757 7.29095919,13.15972 7.20512173,13.2545551 L7.20512173,13.2545551 Z M7.4031119,15.174228 C7.50293027,14.6553322 7.76695218,14.1834612 8.15524428,13.8299997 L9.32413338,14.6632406 C9.37300736,14.7087109 9.43551606,14.7362993 9.50168616,14.7416041 C9.59654507,14.7416041 9.65964356,14.6556775 9.65964356,14.4992119 L9.84794366,12.9596618 C11.2698401,14.3399929 13.0590501,14.6496149 14.3789748,14.6496149 C14.9975936,14.6543511 15.6146154,14.5854011 16.2173212,14.4441862 C16.7182582,14.2463581 17.1832939,13.9657396 17.5934763,13.6137667 C17.5632107,14.0366322 17.4920003,14.4554668 17.3808703,14.864241 C16.8100489,16.9714574 15.7123235,18.8211252 14.3691556,19.9389673 C14.3207321,19.9792752 14.2701376,20.0155633 14.2200408,20.0527391 C14.1151233,20.0873277 13.9718409,20.2179363 13.8675851,20.2447465 C13.4132386,20.46864 12.9148098,20.585754 12.4095002,20.5873474 C11.8834964,20.5793673 11.3615742,20.4924053 10.8607881,20.3293032 C10.4619624,20.2020926 10.096537,19.9856259 9.79160832,19.6959541 C9.66210266,19.5811585 9.53984396,19.4582444 9.42555368,19.3279374 C8.43713644,18.1243014 7.74410482,16.7009449 7.4031119,15.1742225 L7.4031119,15.174228 Z M9.63049531,20.9290878 C10.4174152,21.4701003 11.3447723,21.7634867 12.2959525,21.772354 C13.1601081,21.7753361 14.0050027,21.5139964 14.7199487,21.0225722 C14.8670243,20.9689191 15.0118347,20.9115266 15.1520288,20.8467371 C15.4130472,21.487292 15.8126571,22.0604207 16.3214344,22.5239224 C14.9733542,23.549661 13.5935136,24.0365044 12.2044564,23.9670604 C10.8652923,23.862085 9.59116222,23.3395765 8.55736097,22.4714214 C9.01594568,22.0374173 9.38125361,21.5123844 9.63048724,20.9290878 L9.63049531,20.9290878 Z M1.23893153,28.0936273 L1.24880185,28.0007312 C1.4820766,24.3166063 6.58025702,23.4274953 6.62957096,23.4192866 L6.63921261,23.4177342 L6.64882198,23.4159993 C6.98779394,23.3552409 7.31730565,23.2492231 7.62873305,23.1007206 C8.40671013,23.7876084 10.0108214,24.9378194 12.139195,25.0472636 C12.2485567,25.0530738 12.3577005,25.055888 12.4666265,25.0557065 C14.1139665,25.0557065 15.7280907,24.4123022 17.277357,23.1415487 C17.5631893,23.2687183 17.863008,23.3608533 18.1704367,23.4159939 L18.1800622,23.4176961 L18.1875168,23.4189353 C18.2389829,23.4274898 23.3369857,24.3166172 23.5704219,28.0007775 L23.5715302,28.0181017 L23.5731282,28.0350964 C23.7162314,29.6943623 23.7236844,31.3627612 23.5954111,33.0232696 C23.5582165,33.4320682 23.1590617,33.9176697 22.7412208,33.9176697 L2.07801904,33.9176697 C1.65448842,33.9176697 1.22973376,33.419472 1.18686283,33.0118309 C1.01591952,31.3759254 1.03339302,29.7254477 1.23893153,28.0936273 L1.23893153,28.0936273 Z" id="Shape" fill="#FFFFFF" fill-rule="nonzero"></path>
                <path d="M3.59040369,32.4123808 L21.1810338,32.4376472 C21.7222603,32.4383752 22.1658703,32.0083951 22.1819778,31.4674079 C22.2430693,29.4155829 22.0912042,27.9981379 21.7263824,27.215073 C21.3065405,26.3139111 20.1147908,25.4942526 18.1511331,24.7560976 C16.3500754,25.7170765 14.5490176,26.1975659 12.7479598,26.1975659 C10.946902,26.1975659 9.14584424,25.7170765 7.34478646,24.7560976 C4.71024279,25.4047847 3.27008241,26.1917736 3.02430532,27.1170642 C2.81264427,27.9139163 2.66872099,29.3332517 2.59253547,31.3750704 C2.57191731,31.9269839 3.00263813,32.3910931 3.55455253,32.4116864 C3.56649781,32.4121321 3.57845012,32.4123636 3.59040369,32.4123808 Z" id="Path-5" stroke="#FFFFFF" stroke-width="0.75"></path>
                <path d="M23.902439,23.2672283 L28.3896044,17.9268293 L30.0161423,18.7518953 C31.4786768,19.4937702 32.3402188,21.053201 32.1897455,22.6862176 L31.886661,25.9754525 C31.8630521,26.2316684 31.648848,26.4281362 31.3915506,26.429567 L25.304832,26.4634146" id="Path-6" stroke="#FFFFFF" stroke-width="0.75"></path>
            </g>
        </g>
    </g>
</svg>