<?xml version="1.0" encoding="UTF-8"?>
<svg width="38px" height="35px" viewBox="0 0 38 35" version="1.1" xmlns="http://www.w3.org/2000/svg" xmlns:xlink="http://www.w3.org/1999/xlink">
    <!-- Generator: Sketch 55.2 (78181) - https://sketchapp.com -->
    <title>Shape</title>
    <desc>Created with Sketch.</desc>
    <g id="Page-1" stroke="none" stroke-width="1" fill="none" fill-rule="evenodd">
        <g id="Homepage" transform="translate(-531.000000, -1619.000000)" fill="#FFFFFF" fill-rule="nonzero">
            <path d="M540.51429,1652.74078 C541.092082,1653.52706 542.010893,1653.99428 542.990482,1654 L556.921454,1654 C557.901533,1654.00661 558.825596,1653.54651 559.407095,1652.76232 C559.988594,1651.97812 560.15724,1650.96461 559.860736,1650.03607 L554.590695,1633.17255 C556.592856,1631.28609 557.236195,1628.37726 556.214611,1625.8301 C555.193027,1623.28293 552.712812,1621.61178 549.954054,1621.61178 C547.195296,1621.61178 544.715081,1623.28293 543.693497,1625.8301 C542.671913,1628.37726 543.315252,1631.28609 545.317413,1633.17255 L540.0512,1650.02085 C539.763968,1650.94926 539.935716,1651.95801 540.51429,1652.74078 L540.51429,1652.74078 Z M541.15343,1650.35942 L546.511496,1633.16114 C546.580167,1632.94268 546.510861,1632.70457 546.335446,1632.55629 C544.542718,1631.0505 543.886914,1628.59215 544.693505,1626.40129 C545.500097,1624.21044 547.597381,1622.75347 549.944486,1622.75347 C552.291591,1622.75347 554.388875,1624.21044 555.195467,1626.40129 C556.002058,1628.59215 555.346254,1631.0505 553.553526,1632.55629 C553.386349,1632.7099 553.326291,1632.94719 553.400439,1633.16114 L558.758505,1650.35942 C558.952565,1650.94253 558.851402,1651.5829 558.486878,1652.07883 C558.122354,1652.57476 557.539336,1652.86521 556.921454,1652.85881 L542.990482,1652.85881 C542.372599,1652.86521 541.789581,1652.57476 541.425057,1652.07883 C541.060533,1651.5829 540.95937,1650.94253 541.15343,1650.35942 Z M543.530115,1651.12023 L556.385647,1651.12023 C556.568393,1651.12023 556.740169,1651.03354 556.848239,1650.88706 C556.956309,1650.74058 556.987759,1650.55171 556.932935,1650.37844 L551.869563,1634.12357 C551.777928,1633.8426 551.485719,1633.67757 551.195977,1633.74317 C550.389965,1633.92684 549.552587,1633.92684 548.746576,1633.74317 C548.456834,1633.67757 548.164624,1633.8426 548.07299,1634.12357 L542.979,1650.36322 C542.924176,1650.5365 542.955627,1650.72537 543.063696,1650.87184 C543.171766,1651.01832 543.343542,1651.10491 543.526288,1651.10502 L543.530115,1651.12023 Z M549.002997,1634.96047 C549.637376,1635.05422 550.282214,1635.05422 550.916592,1634.96047 L555.6049,1649.96379 L544.307035,1649.96379 L549.002997,1634.96047 Z M561.885319,1624.00851 C561.571919,1623.51119 561.045116,1623.18551 560.457777,1623.12596 C559.850258,1623.05575 559.243854,1623.26601 558.812086,1623.69657 L558.812086,1623.69657 L558.735542,1623.77646 C558.100065,1624.42393 557.995517,1625.4206 558.482947,1626.18444 C559.280892,1627.48707 559.280892,1629.12338 558.482947,1630.426 C557.994066,1631.18951 558.098717,1632.18714 558.735542,1632.83399 L558.815913,1632.91387 C559.190708,1633.28865 559.700334,1633.49949 560.231973,1633.4997 C560.308459,1633.50388 560.385118,1633.50388 560.461604,1633.4997 C561.048944,1633.44016 561.575747,1633.11447 561.889146,1632.61716 C563.543208,1629.98858 563.543208,1626.6523 561.889146,1624.02372 L561.885319,1624.00851 Z M560.913213,1631.99709 C560.786644,1632.20056 560.571166,1632.33301 560.33148,1632.35467 C560.071672,1632.38454 559.812359,1632.29489 559.627277,1632.11121 L559.546906,1632.03133 C559.284568,1631.75797 559.249507,1631.33979 559.462708,1631.02705 C560.485461,1629.35898 560.485461,1627.26288 559.462708,1625.59481 C559.248431,1625.2804 559.285162,1624.85975 559.550733,1624.58673 L559.627277,1624.50684 C559.81205,1624.32268 560.071608,1624.23294 560.33148,1624.26338 C560.571166,1624.28504 560.786644,1624.41749 560.913213,1624.62097 C562.331388,1626.87764 562.331388,1629.74042 560.913213,1631.99709 L560.913213,1631.99709 Z M565.938313,1619.76315 C565.591215,1619.31544 565.066796,1619.03817 564.49929,1619.00233 C563.925813,1618.97472 563.368106,1619.19368 562.968414,1619.60337 L562.926315,1619.64522 C562.234812,1620.3524 562.174361,1621.45831 562.784709,1622.2358 C565.619988,1625.78285 565.619988,1630.80477 562.784709,1634.35182 C562.163576,1635.13875 562.232628,1636.26304 562.945451,1636.96903 L562.98755,1637.01088 C563.362037,1637.38332 563.870021,1637.59268 564.399783,1637.5929 L564.49929,1637.5929 C565.066657,1637.55657 565.590886,1637.27941 565.938313,1636.83208 C569.909451,1631.82702 569.909451,1624.76821 565.938313,1619.76315 Z M565.023615,1636.15496 C564.876856,1636.34089 564.656358,1636.45463 564.418919,1636.46689 C564.175458,1636.47983 563.937808,1636.39004 563.76447,1636.21963 L563.733852,1636.17778 C563.43399,1635.88159 563.404394,1635.40929 563.664963,1635.0784 C566.831397,1631.11707 566.831397,1625.5086 563.664963,1621.54726 C563.40895,1621.21775 563.438424,1620.75063 563.733852,1620.45549 L563.775951,1620.41365 C563.933585,1620.24537 564.15319,1620.14789 564.384474,1620.14355 L564.430401,1620.14355 C564.669335,1620.15423 564.891636,1620.26818 565.038924,1620.45549 C568.698624,1625.05849 568.692285,1631.55901 565.023615,1636.15496 L565.023615,1636.15496 Z M541.176393,1623.79548 L541.096022,1623.71559 C540.664254,1623.28503 540.05785,1623.07477 539.450331,1623.14498 C538.862992,1623.20453 538.336189,1623.53021 538.022789,1624.02753 C536.369643,1626.65636 536.369643,1629.99213 538.022789,1632.62096 C538.336189,1633.11828 538.862992,1633.44396 539.450331,1633.50351 C539.526814,1633.50779 539.603479,1633.50779 539.679962,1633.50351 C540.212928,1633.5043 540.724119,1633.29339 541.09985,1632.91768 L541.180221,1632.83779 C541.815697,1632.19032 541.920246,1631.19365 541.432815,1630.42981 C540.63487,1629.12718 540.63487,1627.49087 541.432815,1626.18825 C541.912525,1625.42728 541.80661,1624.43894 541.176393,1623.79548 L541.176393,1623.79548 Z M540.449227,1631.02324 C540.662428,1631.33599 540.627368,1631.75417 540.365029,1632.02752 L540.365029,1632.02752 L540.288485,1632.10741 C540.103403,1632.29108 539.84409,1632.38073 539.584282,1632.35087 C539.344597,1632.32921 539.129118,1632.19676 539.002549,1631.99329 C537.585288,1629.73636 537.585288,1626.87409 539.002549,1624.61716 C539.129118,1624.41369 539.344597,1624.28124 539.584282,1624.25958 L539.683789,1624.25958 C539.910937,1624.25995 540.128565,1624.35031 540.288485,1624.51065 L540.368856,1624.59053 C540.631195,1624.86389 540.666255,1625.28207 540.453055,1625.59481 C539.430302,1627.26288 539.430302,1629.35898 540.453055,1631.02705 L540.449227,1631.02324 Z M535.412645,1637.60812 L535.515979,1637.60812 C536.056954,1637.60756 536.574666,1637.38937 536.951176,1637.00327 L536.989447,1636.96142 C537.68095,1636.25424 537.741401,1635.14833 537.131054,1634.37084 C534.295775,1630.82379 534.295775,1625.80187 537.131054,1622.25482 C537.751654,1621.46912 537.682583,1620.34613 536.970312,1619.64142 L536.970312,1619.64142 L536.943521,1619.59957 C536.543346,1619.20404 535.993042,1618.99599 535.429567,1619.02718 C534.866093,1619.05838 534.342438,1619.32589 533.98893,1619.76315 C530.00369,1624.77329 530.00369,1631.84857 533.98893,1636.85871 C534.335075,1637.29793 534.852613,1637.57035 535.412645,1637.60812 Z M534.876839,1620.48973 C535.019257,1620.28794 535.245637,1620.16076 535.493016,1620.14355 L535.54277,1620.14355 C535.768124,1620.14355 535.984266,1620.23246 536.143638,1620.39082 L536.185738,1620.43267 C536.4856,1620.72886 536.515196,1621.20116 536.254627,1621.53205 C533.088193,1625.49338 533.088193,1631.10185 536.254627,1635.06318 C536.52014,1635.39797 536.487041,1635.8783 536.178083,1636.17398 L536.139811,1636.21582 C535.967522,1636.38862 535.729893,1636.48116 535.485362,1636.4707 C535.246428,1636.46002 535.024126,1636.34607 534.876839,1636.15876 C531.222077,1631.55881 531.226829,1625.06536 534.88832,1620.47071 L534.876839,1620.48973 Z" id="Shape"></path>
        </g>
    </g>
</svg>